<?xml version="1.0" encoding="UTF-8"?>
<svg id="Layer_1" data-name="Layer 1" xmlns="http://www.w3.org/2000/svg" xmlns:xlink="http://www.w3.org/1999/xlink" viewBox="0 0 2127.10 271.25">
  <defs>
    <style>
      .cls-1 {
        fill: url(#linear-gradient);
      }

      .cls-1, .cls-2, .cls-3, .cls-4 {
        stroke-width: 0px;
      }

      .cls-2 {
        fill: url(#linear-gradient-2);
      }

      .cls-3 {
        fill: #82D11C;
      }

      .cls-4 {
        fill: #fff;
      }
    </style>
    <linearGradient id="linear-gradient" x1=".29" y1="135.62" x2="271.53" y2="135.62" gradientUnits="userSpaceOnUse">
      <stop offset="0" stop-color="#82D11C" stop-opacity="0"/>
      <stop offset="1" stop-color="#82D11C"/>
    </linearGradient>
    <linearGradient id="linear-gradient-2" x1="-.89" y1="107.59" x2="138.04" y2="105.69" xlink:href="#linear-gradient"/>
  </defs>
  <g>
    <path class="cls-1" d="M165.95,271.25c-74.78,0-135.62-60.84-135.62-135.62S91.17,0,165.95,0s135.62,60.84,135.62,135.62-60.84,135.62-135.62,135.62ZM165.95,8.46c-70.12,0-127.16,57.04-127.16,127.17s57.04,127.16,127.16,127.16,127.17-57.04,127.17-127.16S236.08,8.46,165.95,8.46Z"/>
    <g>
      <path class="cls-4" d="M189.6,94.41c-12.52,0-23.57,7.95-27.52,19.79l-25.62,76.39h25.83l22.99-68.61c.64-1.87,2.33-3.09,4.32-3.09h42.93v-24.49h-42.93Z"/>
      <path class="cls-2" d="M0,94.39v24.48h138.2c5.63,0,10.73-3.34,12.97-8.51l6.93-15.97H0Z"/>
    </g>
  </g>
  <g>
    <path class="cls-4" d="M397.6,104.7h-36.07l5.65-26.43h101.24l-5.65,26.43h-35.91l-19.29,89.94h-29.09l19.12-89.94Z"/>
    <path class="cls-4" d="M460.64,112.18h27.76l-3.99,19.12c8.31-14.79,19.45-20.78,34.74-20.78l-4.99,24.93c-24.6-2.16-31.58,3.16-42.22,53.54l-1,5.65h-27.76l17.45-82.46Z"/>
    <path class="cls-4" d="M517.02,154.91l9.31-42.72h27.6l-9.14,42.72c-2.99,13.96-1,20.95,7.81,20.95,10.47,0,20.78-8.48,31.09-58.19l1.16-5.49h27.76l-17.45,82.46h-27.76l3.66-17.96c-8.15,13.97-19.12,19.62-30.92,19.62-18.79,0-29.26-12.47-23.11-41.39Z"/>
    <path class="cls-4" d="M611.82,148.75c5.49-25.1,27.93-38.23,54.36-38.23,8.98,0,18.29,1.16,26.43,5.49l-4.49,21.28c-8.15-3.99-14.96-5.49-21.78-5.49-14.79,0-24.94,7.81-27.43,19.45-2.66,12.8,4.16,22.44,19.95,22.44,8.15,0,15.79-1.99,23.61-5.65l-4.66,21.61c-10.64,5.49-20.28,6.65-29.26,6.65-27.1,0-43.06-17.12-36.74-47.55Z"/>
    <path class="cls-4" d="M710.94,74.94h28.6l-11.14,51.87c8.15-10.81,19.78-16.29,33.25-16.29,17.62,0,27.43,12.14,23.77,28.59-2.33,10.64-10.97,18.12-27.26,21.61l18.78,33.92h-31.26l-18.29-35.58.83-4.16c17.95,0,26.6-3.66,28.59-12.3,1.34-5.99-1.99-12.14-10.97-12.14s-19.28,5.65-23.11,22.94l-8.81,41.23h-28.59l25.6-119.7Z"/>
    <path class="cls-3" d="M808.22,78.26h53.36c24.61,0,43.56,6.99,38.4,31.26-2.49,11.3-11.8,19.78-28.76,22.11,16.96,3.49,25.77,14.3,21.78,33.25-4.49,20.12-26.43,29.76-54.36,29.76h-55.03l24.61-116.38ZM837.98,172.2c11.8,0,22.44-2.99,24.61-12.97,2.66-12.63-7.32-15.13-18.62-15.13h-20.62l-5.82,28.09h20.45ZM848.29,123.99c8.81,0,18.95-2.33,20.78-11.47,2.32-10.47-5.99-13.63-16.63-13.63h-19.28l-5.32,25.1h20.45Z"/>
    <path class="cls-3" d="M899.87,150.59c5.66-26.43,26.77-40.06,55.36-40.06,20.95,0,34.08,10.14,30.59,26.76-2.33,12.3-12.3,25.93-45.05,25.93-6.15,0-10.81-.83-15.13-2.83.66,11.31,8.64,15.79,23.44,15.79,9.31,0,18.62-2,27.1-5.99l-3.49,16.63c-9.97,6.82-22.44,9.48-35.91,9.48-29.09,0-42.89-17.95-36.91-45.71ZM940.44,147.09c12.63,0,18.78-3.82,19.78-9.14,1.33-5.49-1.83-9.31-9.31-9.31-8.81,0-18.45,3.99-22.95,16.63,3.33,1.16,7.15,1.83,12.47,1.83Z"/>
    <path class="cls-3" d="M998.32,112.18h27.76l-3.82,18.29c8.48-14.13,19.62-19.95,31.25-19.95s20.78,6.15,21.45,22.11c9.97-16.29,22.61-22.11,35.08-22.11,15.96,0,24.77,11.63,18.78,39.4l-9.48,44.72h-27.76l9.48-44.72c2-8.98,3.82-19.12-5.49-19.12s-20.45,8.31-30.42,58.02l-1.16,5.82h-27.76l9.3-44.05c2-8.98,4-19.78-5.49-19.78s-19.95,8.64-30.42,58.19l-1,5.65h-27.76l17.45-82.46Z"/>
  </g>

  <path fill="#ffffff" d="M1170.7969151670952 78.85861182519281H1266.3496143958869L1262.4164524421594 101.30077120822622H1227.943444730077L1211.6709511568124 194.0H1184.987146529563L1201.2596401028277 101.30077120822622H1166.7866323907456Z M1330.051413881748 131.146529562982Q1327.4293059125964 129.52699228791772 1324.305912596401 128.67866323907455Q1321.1825192802057 127.83033419023137 1317.6349614395888 127.83033419023137Q1308.0719794344473 127.83033419023137 1301.7866323907456 134.61696658097688Q1295.5012853470437 141.40359897172237 1293.3419023136248 154.2056555269923L1286.2467866323907 194.0H1261.3367609254499L1276.452442159383 107.62467866323908H1301.439588688946L1298.7403598971723 122.4318766066838Q1303.6760925449871 114.25706940874036 1311.0411311053986 109.89974293059126Q1318.4061696658098 105.54241645244215 1327.4293059125964 105.54241645244215Q1328.8174807197943 105.54241645244215 1330.4755784061697 105.69665809768637Q1332.133676092545 105.8508997429306 1334.3701799485862 106.15938303341902Z M1373.8560411311055 155.13110539845758Q1364.5244215938303 155.13110539845758 1359.7814910025709 158.33161953727506Q1355.0385604113112 161.53213367609254 1355.0385604113112 167.7789203084833Q1355.0385604113112 172.48329048843186 1357.8534704370181 175.18251928020567Q1360.668380462725 177.88174807197944 1365.6041131105399 177.88174807197944Q1373.1619537275064 177.88174807197944 1378.3290488431876 172.75321336760925Q1383.496143958869 167.62467866323908 1385.1928020565554 158.29305912596402L1385.73264781491 155.13110539845758ZM1412.6478149100258 144.719794344473 1403.9331619537274 194.0H1379.1002570694088L1381.1825192802057 181.19794344473007Q1375.0899742930592 188.91002570694087 1368.2647814910026 192.573264781491Q1361.439588688946 196.23650385604114 1353.496143958869 196.23650385604114Q1342.4678663239074 196.23650385604114 1335.9897172236504 189.87403598971724Q1329.5115681233933 183.51156812339332 1329.5115681233933 172.7146529562982Q1329.5115681233933 156.2107969151671 1340.9640102827764 147.45758354755785Q1352.4164524421594 138.7043701799486 1374.0874035989718 138.7043701799486H1388.7403598971723L1389.0488431876606 136.54498714652956Q1389.203084832905 135.46529562982005 1389.241645244216 135.0025706940874Q1389.280205655527 134.53984575835477 1389.280205655527 134.1542416452442Q1389.280205655527 129.06426735218508 1384.961439588689 126.48071979434448Q1380.642673521851 123.89717223650386 1372.082262210797 123.89717223650386Q1364.3701799485862 123.89717223650386 1357.159383033419 125.67095115681235Q1349.948586118252 127.44473007712082 1343.2390745501286 130.9922879177378L1346.9408740359897 109.93830334190231Q1354.7300771208227 107.7789203084833 1362.904884318766 106.66066838046272Q1371.0796915167095 105.54241645244215 1379.7943444730079 105.54241645244215Q1397.06940874036 105.54241645244215 1405.4755784061697 112.1362467866324Q1413.8817480719795 118.73007712082263 1413.8817480719795 132.22622107969153Q1413.8817480719795 134.8483290488432 1413.5732647814912 137.97172236503857Q1413.2647814910026 141.09511568123395 1412.6478149100258 144.719794344473Z M1514.6015424164525 141.40359897172237 1505.3470437017995 194.0H1480.4370179948587L1488.3033419023136 148.96143958868896Q1489.1516709511568 144.5655526992288 1489.5758354755785 141.51928020565555Q1490.0 138.47300771208228 1490.0 136.69922879177378Q1490.0 131.76349614395886 1487.5321336760926 129.06426735218508Q1485.0642673521852 126.3650385604113 1480.5912596401029 126.3650385604113Q1472.8791773778921 126.3650385604113 1467.3650385604114 133.03598971722363Q1461.8508997429306 139.70694087403598 1459.6915167095117 151.5064267352185L1452.210796915167 194.0H1427.3007712082263L1442.4164524421594 107.62467866323908H1467.4035989717224L1465.0899742930592 120.27249357326478Q1471.9537275064267 112.79177377892032 1478.8946015424165 109.16709511568124Q1485.8354755784062 105.54241645244215 1493.3933161953728 105.54241645244215Q1504.190231362468 105.54241645244215 1510.0128534704372 111.7892030848329Q1515.8354755784062 118.03598971722366 1515.8354755784062 129.3727506426735Q1515.8354755784062 131.84061696658097 1515.526992287918 134.8483290488432Q1515.2185089974294 137.8560411311054 1514.6015424164525 141.40359897172237Z M1603.6760925449873 110.32390745501286 1600.0514138817482 131.76349614395886Q1592.724935732648 127.90745501285348 1585.514138817481 125.90231362467867Q1578.3033419023138 123.89717223650386 1571.8251928020566 123.89717223650386Q1564.4987146529563 123.89717223650386 1560.4884318766067 126.01799485861184Q1556.4781491002573 128.1388174807198 1556.4781491002573 132.07197943444731Q1556.4781491002573 134.38560411311053 1558.7146529562983 135.77377892030847Q1560.9511568123394 137.16195372750644 1567.4293059125964 138.7043701799486L1571.979434447301 139.62982005141387Q1587.017994858612 143.17737789203085 1593.0719794344473 148.76863753213368Q1599.1259640102828 154.35989717223651 1599.1259640102828 164.30848329048843Q1599.1259640102828 179.3470437017995 1588.521850899743 187.79177377892032Q1577.917737789203 196.23650385604114 1558.7917737789205 196.23650385604114Q1550.7712082262212 196.23650385604114 1542.4421593830334 194.8483290488432Q1534.1131105398458 193.46015424164526 1525.4755784061697 190.68380462724934L1529.254498714653 169.01285347043702Q1535.9640102827764 173.40874035989717 1543.6375321336761 175.6452442159383Q1551.311053984576 177.88174807197944 1559.3316195372752 177.88174807197944Q1567.1979434447303 177.88174807197944 1571.169665809769 175.79948586118252Q1575.1413881748074 173.71722365038562 1575.1413881748074 169.70694087403598Q1575.1413881748074 166.9305912596401 1572.904884318766 165.38817480719794Q1570.668380462725 163.8457583547558 1563.7275064267353 162.22622107969153L1559.177377892031 161.30077120822622Q1545.9125964010284 158.2159383033419 1540.2056555269924 152.20051413881748Q1534.4987146529563 146.18508997429305 1534.4987146529563 135.54241645244215Q1534.4987146529563 121.12082262210797 1544.3316195372752 113.33161953727506Q1554.164524421594 105.54241645244215 1572.3650385604114 105.54241645244215Q1580.3856041131107 105.54241645244215 1588.1362467866325 106.73778920308483Q1595.8868894601544 107.9331619537275 1603.6760925449873 110.32390745501286Z M1640.3084832904883 181.5064267352185 1632.2879177377893 226.853470437018H1607.3007712082263L1628.2005141388174 107.62467866323908H1653.1876606683804L1650.8740359897172 120.27249357326478Q1656.5809768637532 112.7146529562982 1662.827763496144 109.12853470437017Q1669.0745501285346 105.54241645244215 1676.478149100257 105.54241645244215Q1689.5886889460153 105.54241645244215 1697.223650385604 114.79691516709511Q1704.8586118251928 124.05141388174808 1704.8586118251928 140.01542416452443Q1704.8586118251928 149.96401028277634 1702.19794344473 159.3727506426735Q1699.5372750642673 168.7814910025707 1694.5244215938303 176.4935732647815Q1688.2005141388174 186.2107969151671 1680.2570694087403 191.22365038560412Q1672.3136246786632 196.23650385604114 1663.2133676092544 196.23650385604114Q1655.2699228791773 196.23650385604114 1649.6786632390745 192.65038560411313Q1644.0874035989716 189.06426735218508 1640.3084832904883 181.5064267352185ZM1666.3753213367609 125.59383033419023Q1656.8123393316196 125.59383033419023 1650.719794344473 135.426735218509Q1644.6272493573265 145.25964010282777 1644.6272493573265 160.9922879177378Q1644.6272493573265 168.08740359897172 1648.0591259640103 172.1362467866324Q1651.491002570694 176.18508997429305 1657.5835475578406 176.18508997429305Q1666.9922879177377 176.18508997429305 1673.0848329048843 166.5064267352185Q1679.1773778920308 156.82776349614397 1679.1773778920308 141.7120822622108Q1679.1773778920308 133.8457583547558 1675.8997429305912 129.719794344473Q1672.6221079691516 125.59383033419023 1666.3753213367609 125.59383033419023Z M1763.7017994858613 125.2853470437018Q1754.0616966580978 125.2853470437018 1747.814910025707 135.0025706940874Q1741.5681233933162 144.719794344473 1741.5681233933162 159.75835475578407Q1741.5681233933162 167.9331619537275 1744.922879177378 172.2133676092545Q1748.2776349614396 176.4935732647815 1754.7557840616969 176.4935732647815Q1764.3958868894604 176.4935732647815 1770.642673521851 166.73778920308484Q1776.8894601542418 156.98200514138819 1776.8894601542418 141.866323907455Q1776.8894601542418 133.76863753213368 1773.53470437018 129.52699228791775Q1770.1799485861184 125.2853470437018 1763.7017994858613 125.2853470437018ZM1765.706940874036 105.54241645244215Q1783.0591259640105 105.54241645244215 1793.0077120822625 115.33676092544987Q1802.9562982005143 125.13110539845758 1802.9562982005143 142.02056555269922Q1802.9562982005143 151.81491002570695 1799.8329048843189 161.03084832904887Q1796.7095115681236 170.24678663239075 1790.694087403599 177.88174807197944Q1783.6760925449873 186.98200514138819 1773.9974293059126 191.60925449871468Q1764.3187660668382 196.23650385604114 1752.4421593830336 196.23650385604114Q1735.3213367609255 196.23650385604114 1725.4498714652957 186.4421593830334Q1715.5784061696659 176.64781491002572 1715.5784061696659 159.75835475578407Q1715.5784061696659 150.04113110539845 1718.7403598971723 140.74807197943443Q1721.9023136246788 131.45501285347044 1727.9177377892033 123.74293059125964Q1734.8586118251928 114.79691516709512 1744.4601542416453 110.16966580976865Q1754.0616966580978 105.54241645244215 1765.706940874036 105.54241645244215Z M1881.1568123393317 131.146529562982Q1878.53470437018 129.52699228791772 1875.4113110539847 128.67866323907455Q1872.2879177377893 127.83033419023137 1868.7403598971723 127.83033419023137Q1859.1773778920308 127.83033419023137 1852.892030848329 134.61696658097688Q1846.6066838046272 141.40359897172237 1844.4473007712081 154.2056555269923L1837.3521850899742 194.0H1812.4421593830334L1827.5578406169666 107.62467866323908H1852.5449871465296L1849.8457583547558 122.4318766066838Q1854.7814910025706 114.25706940874036 1862.1465295629819 109.89974293059126Q1869.5115681233933 105.54241645244215 1878.53470437018 105.54241645244215Q1879.9228791773778 105.54241645244215 1881.5809768637532 105.69665809768637Q1883.2390745501286 105.8508997429306 1885.4755784061697 106.15938303341902Z M1929.280205655527 83.10025706940874 1925.0385604113112 107.62467866323908H1950.4884318766067L1946.9408740359897 127.36760925449872H1921.491002570694L1915.1670951156814 163.9228791773779Q1914.8586118251928 165.15681233933162 1914.7429305912597 166.00514138817482Q1914.6272493573265 166.853470437018 1914.6272493573265 167.62467866323908Q1914.6272493573265 171.17223650385603 1916.7480719794344 172.7146529562982Q1918.8688946015425 174.25706940874036 1923.8817480719795 174.25706940874036H1936.7609254498716L1933.2133676092546 194.0H1912.3136246786632Q1901.0539845758356 194.0 1895.1542416452444 188.75578406169666Q1889.254498714653 183.51156812339332 1889.254498714653 173.64010282776349Q1889.254498714653 171.48071979434448 1889.4473007712081 169.01285347043702Q1889.6401028277635 166.54498714652956 1890.1028277634962 164.0L1896.5038560411313 127.36760925449872H1884.241645244216L1887.6349614395888 107.62467866323908H1900.0514138817482L1904.293059125964 83.10025706940874Z M2035.4755784061697 154.0514138817481 2034.6272493573265 158.44730077120823H1976.478149100257Q1976.478149100257 158.91002570694087 1976.4010282776349 159.7969151670951Q1976.3239074550129 160.68380462724934 1976.3239074550129 161.146529562982Q1976.3239074550129 169.55269922879177 1980.8740359897174 173.71722365038562Q1985.4241645244217 177.88174807197944 1994.5244215938303 177.88174807197944Q2002.3907455012854 177.88174807197944 2011.1053984575838 175.25964010282777Q2019.8200514138819 172.6375321336761 2029.3830334190231 167.47043701799487L2025.5269922879177 188.91002570694087Q2016.503856041131 192.61182519280206 2007.5192802056554 194.4241645244216Q1998.53470437018 196.23650385604114 1989.203084832905 196.23650385604114Q1971.0025706940874 196.23650385604114 1961.1311053984575 186.90488431876605Q1951.2596401028277 177.573264781491 1951.2596401028277 160.52956298200513Q1951.2596401028277 150.65809768637533 1954.3830334190231 141.36503856041134Q1957.5064267352186 132.07197943444731 1963.5989717223651 124.3598971722365Q1970.771208226221 115.10539845758355 1980.719794344473 110.32390745501286Q1990.668380462725 105.54241645244215 2002.776349614396 105.54241645244215Q2018.586118251928 105.54241645244215 2027.840616966581 114.87403598971721Q2037.095115681234 124.20565552699229 2037.095115681234 140.01542416452443Q2037.095115681234 143.10025706940874 2036.7095115681234 146.53213367609254Q2036.3239074550129 149.96401028277634 2035.4755784061697 154.0514138817481ZM2012.030848329049 141.40359897172237Q2012.2622107969153 140.40102827763496 2012.3393316195375 139.35989717223651Q2012.4164524421594 138.31876606683804 2012.4164524421594 137.31619537275066Q2012.4164524421594 131.146529562982 2009.1002570694086 127.52185089974293Q2005.784061696658 123.89717223650386 2000.0771208226222 123.89717223650386Q1992.827763496144 123.89717223650386 1987.6992287917737 128.33161953727506Q1982.5706940874036 132.76606683804627 1979.8714652956298 141.40359897172237Z M2122.0822622107967 110.32390745501286 2118.4575835475575 131.76349614395886Q2111.1311053984573 127.90745501285348 2103.9203084832902 125.90231362467867Q2096.709511568123 123.89717223650386 2090.2313624678663 123.89717223650386Q2082.904884318766 123.89717223650386 2078.8946015424162 126.01799485861184Q2074.884318766067 128.1388174807198 2074.884318766067 132.07197943444731Q2074.884318766067 134.38560411311053 2077.120822622108 135.77377892030847Q2079.357326478149 137.16195372750644 2085.835475578406 138.7043701799486L2090.3856041131103 139.62982005141387Q2105.4241645244215 143.17737789203085 2111.478149100257 148.76863753213368Q2117.5321336760926 154.35989717223651 2117.5321336760926 164.30848329048843Q2117.5321336760926 179.3470437017995 2106.9280205655527 187.79177377892032Q2096.323907455013 196.23650385604114 2077.19794344473 196.23650385604114Q2069.1773778920306 196.23650385604114 2060.848329048843 194.8483290488432Q2052.5192802056554 193.46015424164526 2043.8817480719792 190.68380462724934L2047.6606683804625 169.01285347043702Q2054.370179948586 173.40874035989717 2062.043701799486 175.6452442159383Q2069.7172236503857 177.88174807197944 2077.7377892030845 177.88174807197944Q2085.60411311054 177.88174807197944 2089.575835475578 175.79948586118252Q2093.5475578406167 173.71722365038562 2093.5475578406167 169.70694087403598Q2093.5475578406167 166.9305912596401 2091.3110539845757 165.38817480719794Q2089.0745501285346 163.8457583547558 2082.133676092545 162.22622107969153L2077.5835475578406 161.30077120822622Q2064.3187660668377 158.2159383033419 2058.611825192802 152.20051413881748Q2052.904884318766 146.18508997429305 2052.904884318766 135.54241645244215Q2052.904884318766 121.12082262210797 2062.7377892030845 113.33161953727506Q2072.5706940874034 105.54241645244215 2090.771208226221 105.54241645244215Q2098.7917737789203 105.54241645244215 2106.542416452442 106.73778920308483Q2114.2930591259637 107.9331619537275 2122.0822622107967 110.32390745501286Z"/>
</svg>