<?xml version="1.0" encoding="UTF-8"?>
<svg id="Layer_1" data-name="Layer 1" xmlns="http://www.w3.org/2000/svg" xmlns:xlink="http://www.w3.org/1999/xlink" viewBox="0 0 1130.71 271.25">
  <defs>
    <style>
      .cls-1 {
        fill: url(#linear-gradient);
      }

      .cls-1, .cls-2, .cls-3, .cls-4 {
        stroke-width: 0px;
      }

      .cls-2 {
        fill: url(#linear-gradient-2);
      }

      .cls-3 {
        fill: #82D11C;
      }

      .cls-4 {
        fill: #fff;
      }
    </style>
    <linearGradient id="linear-gradient" x1=".29" y1="135.62" x2="271.53" y2="135.62" gradientUnits="userSpaceOnUse">
      <stop offset="0" stop-color="#82D11C" stop-opacity="0"/>
      <stop offset="1" stop-color="#82D11C"/>
    </linearGradient>
    <linearGradient id="linear-gradient-2" x1="-.89" y1="107.59" x2="138.04" y2="105.69" xlink:href="#linear-gradient"/>
  </defs>
  <g>
    <path class="cls-1" d="M165.95,271.25c-74.78,0-135.62-60.84-135.62-135.62S91.17,0,165.95,0s135.62,60.84,135.62,135.62-60.84,135.62-135.62,135.62ZM165.95,8.46c-70.12,0-127.16,57.04-127.16,127.17s57.04,127.16,127.16,127.16,127.17-57.04,127.17-127.16S236.08,8.46,165.95,8.46Z"/>
    <g>
      <path class="cls-4" d="M189.6,94.41c-12.52,0-23.57,7.95-27.52,19.79l-25.62,76.39h25.83l22.99-68.61c.64-1.87,2.33-3.09,4.32-3.09h42.93v-24.49h-42.93Z"/>
      <path class="cls-2" d="M0,94.39v24.48h138.2c5.63,0,10.73-3.34,12.97-8.51l6.93-15.97H0Z"/>
    </g>
  </g>
  <g>
    <path class="cls-4" d="M397.6,104.7h-36.07l5.65-26.43h101.24l-5.65,26.43h-35.91l-19.29,89.94h-29.09l19.12-89.94Z"/>
    <path class="cls-4" d="M460.64,112.18h27.76l-3.99,19.12c8.31-14.79,19.45-20.78,34.74-20.78l-4.99,24.93c-24.6-2.16-31.58,3.16-42.22,53.54l-1,5.65h-27.76l17.45-82.46Z"/>
    <path class="cls-4" d="M517.02,154.91l9.31-42.72h27.6l-9.14,42.72c-2.99,13.96-1,20.95,7.81,20.95,10.47,0,20.78-8.48,31.09-58.19l1.16-5.49h27.76l-17.45,82.46h-27.76l3.66-17.96c-8.15,13.97-19.12,19.62-30.92,19.62-18.79,0-29.26-12.47-23.11-41.39Z"/>
    <path class="cls-4" d="M611.82,148.75c5.49-25.1,27.93-38.23,54.36-38.23,8.98,0,18.29,1.16,26.43,5.49l-4.49,21.28c-8.15-3.99-14.96-5.49-21.78-5.49-14.79,0-24.94,7.81-27.43,19.45-2.66,12.8,4.16,22.44,19.95,22.44,8.15,0,15.79-1.99,23.61-5.65l-4.66,21.61c-10.64,5.49-20.28,6.65-29.26,6.65-27.1,0-43.06-17.12-36.74-47.55Z"/>
    <path class="cls-4" d="M710.94,74.94h28.6l-11.14,51.87c8.15-10.81,19.78-16.29,33.25-16.29,17.62,0,27.43,12.14,23.77,28.59-2.33,10.64-10.97,18.12-27.26,21.61l18.78,33.92h-31.26l-18.29-35.58.83-4.16c17.95,0,26.6-3.66,28.59-12.3,1.34-5.99-1.99-12.14-10.97-12.14s-19.28,5.65-23.11,22.94l-8.81,41.23h-28.59l25.6-119.7Z"/>
    <path class="cls-3" d="M808.22,78.26h53.36c24.61,0,43.56,6.99,38.4,31.26-2.49,11.3-11.8,19.78-28.76,22.11,16.96,3.49,25.77,14.3,21.78,33.25-4.49,20.12-26.43,29.76-54.36,29.76h-55.03l24.61-116.38ZM837.98,172.2c11.8,0,22.44-2.99,24.61-12.97,2.66-12.63-7.32-15.13-18.62-15.13h-20.62l-5.82,28.09h20.45ZM848.29,123.99c8.81,0,18.95-2.33,20.78-11.47,2.32-10.47-5.99-13.63-16.63-13.63h-19.28l-5.32,25.1h20.45Z"/>
    <path class="cls-3" d="M899.87,150.59c5.66-26.43,26.77-40.06,55.36-40.06,20.95,0,34.08,10.14,30.59,26.76-2.33,12.3-12.3,25.93-45.05,25.93-6.15,0-10.81-.83-15.13-2.83.66,11.31,8.64,15.79,23.44,15.79,9.31,0,18.62-2,27.1-5.99l-3.49,16.63c-9.97,6.82-22.44,9.48-35.91,9.48-29.09,0-42.89-17.95-36.91-45.71ZM940.44,147.09c12.63,0,18.78-3.82,19.78-9.14,1.33-5.49-1.83-9.31-9.31-9.31-8.81,0-18.45,3.99-22.95,16.63,3.33,1.16,7.15,1.83,12.47,1.83Z"/>
    <path class="cls-3" d="M998.32,112.18h27.76l-3.82,18.29c8.48-14.13,19.62-19.95,31.25-19.95s20.78,6.15,21.45,22.11c9.97-16.29,22.61-22.11,35.08-22.11,15.96,0,24.77,11.63,18.78,39.4l-9.48,44.72h-27.76l9.48-44.72c2-8.98,3.82-19.12-5.49-19.12s-20.45,8.31-30.42,58.02l-1.16,5.82h-27.76l9.3-44.05c2-8.98,4-19.78-5.49-19.78s-19.95,8.64-30.42,58.19l-1,5.65h-27.76l17.45-82.46Z"/>
  </g>
</svg>